<svg xmlns="http://www.w3.org/2000/svg" version="1.1" xmlns:xlink="http://www.w3.org/1999/xlink" xmlns:svgjs="http://svgjs.dev/svgjs" width="2000" height="459" viewBox="0 0 2000 459"><g transform="matrix(1,0,0,1,-1.2121212121212466,-0.18745240710549638)"><svg viewBox="0 0 396 91" data-background-color="#ffffff" preserveAspectRatio="xMidYMid meet" height="459" width="2000" xmlns="http://www.w3.org/2000/svg" xmlns:xlink="http://www.w3.org/1999/xlink"><g id="tight-bounds" transform="matrix(1,0,0,1,0.2400000000000091,0.037163766986054725)"><svg viewBox="0 0 395.52 90.92567246602788" height="90.92567246602788" width="395.52"><g><svg viewBox="0 0 660.4085415675879 151.82061777999004" height="90.92567246602788" width="395.52"><g><rect width="9.906903032038388" height="131.82687506222" x="229.047337404559" y="9.996871358885016" fill="#ea8812" opacity="1" stroke-width="0" stroke="transparent" fill-opacity="1" class="rect-bu-0" data-fill-palette-color="primary" rx="1%" id="bu-0" data-palette-color="#ea8812"></rect></g><g transform="matrix(1,0,0,1,264.88854156758794,20.982444280736686)"><svg viewBox="0 0 395.52 109.85572921851667" height="109.85572921851667" width="395.52"><g><svg viewBox="0 0 395.52 109.85572921851667" height="109.85572921851667" width="395.52"><g><svg viewBox="0 0 395.52 109.85572921851667" height="109.85572921851667" width="395.52"><g transform="matrix(1,0,0,1,0,0)"><svg width="395.52" viewBox="0.92 -31.61 115.45 32.07" height="109.85572921851667" data-palette-color="#ea8812"><path d="M4.71-30.11L14.31-3.33 14.31-3.33 23.68-30Q24.31-31.38 25.52-31.38L25.52-31.38Q26.21-31.38 26.67-31.03L26.67-31.03Q27.36-30.46 27.36-29.66L27.36-29.66 27.36-29.43Q27.36-29.31 27.24-29.08L27.24-29.08 17.41-2.3Q16.72 0 14.14 0L14.14 0Q11.84 0 11.03-2.3L11.03-2.3 1.03-28.97Q0.92-29.31 0.92-29.6 0.92-29.89 1.09-30.23 1.26-30.57 1.55-30.86L1.55-30.86Q2.18-31.38 2.87-31.38L2.87-31.38Q4.31-31.38 4.71-30.11L4.71-30.11ZM32.24-1.72L32.24-28.79Q32.24-29.89 32.99-30.57L32.99-30.57Q33.68-31.26 34.48-31.38L34.48-31.38Q36.09-31.38 37.01-30.11L37.01-30.11 53.68-5 53.68-29.54Q53.68-30.46 54.02-30.8L54.02-30.8Q54.65-31.38 55.26-31.38 55.86-31.38 56.2-31.26 56.55-31.15 56.78-30.92L56.78-30.92Q57.41-30.46 57.35-29.54L57.35-29.54 57.35-2.59Q57.35-0.86 55.69-0.17L55.69-0.17Q55.28 0 54.65 0L54.65 0Q53.27 0 52.24-1.26L52.24-1.26 35.97-26.03 35.97-1.72Q35.97-0.92 35.51-0.57L35.51-0.57Q34.83 0 34.08 0 33.33 0 32.78-0.43 32.24-0.86 32.24-1.72L32.24-1.72ZM63.79-15.52L63.79-15.52Q63.79-18.51 64.65-21.55 65.51-24.6 67.29-26.78L67.29-26.78Q71.09-31.61 78.1-31.61L78.1-31.61Q82.12-31.61 85.91-29.83L85.91-29.83Q86.89-29.43 86.89-28.51L86.89-28.51Q86.89-26.78 85.51-26.72L85.51-26.72Q85.22-26.72 84.99-26.78L84.99-26.78Q81.03-28.16 78.7-28.16 76.37-28.16 74.82-27.64 73.27-27.13 72.12-26.21 70.97-25.29 70.17-24.08 69.36-22.87 68.9-21.38L68.9-21.38Q67.93-18.62 67.93-15.52L67.93-15.52Q67.93-10.46 70.17-7.01L70.17-7.01Q72.81-2.93 78.33-2.93L78.33-2.93Q82.12-2.93 85.57-4.94L85.57-4.94Q86.03-5.06 86.46-5.06 86.89-5.06 87.27-4.66 87.64-4.25 87.64-3.62 87.64-2.99 87.18-2.44 86.72-1.9 85.94-1.47 85.17-1.03 84.22-0.69 83.27-0.34 82.24-0.11L82.24-0.11Q80.05 0.46 78.1 0.46L78.1 0.46Q71.03 0.46 67.29-4.31L67.29-4.31Q63.79-8.62 63.79-15.52ZM114.76 0L97.87 0Q97.18 0 96.72-0.46L96.72-0.46Q95.91-1.15 95.91-1.9L95.91-1.9 95.91-29.43Q95.91-30.52 97.06-31.15L97.06-31.15Q97.41-31.26 97.75-31.38L97.75-31.38 114.13-31.38Q114.99-31.38 115.39-30.86 115.8-30.34 115.8-29.74 115.8-29.14 115.34-28.62 114.88-28.1 114.13-28.1L114.13-28.1 99.71-28.1 99.71-17.7 113.44-17.7Q114.3-17.7 114.71-17.21 115.11-16.72 115.11-16.09L115.11-16.09Q115.11-15.52 114.65-15.06 114.19-14.6 113.44-14.6L113.44-14.6 99.71-14.6 99.71-3.22 114.76-3.22Q115.57-3.22 115.97-2.7 116.37-2.18 116.37-1.55 116.37-0.92 115.94-0.46 115.51 0 114.76 0L114.76 0Z" opacity="1" transform="matrix(1,0,0,1,0,0)" fill="#ea8812" class="undefined-text-0" data-fill-palette-color="primary" id="text-0"></path></svg></g></svg></g></svg></g></svg></g><g><svg viewBox="0 0 203.11303627356844 151.82061777999004" height="151.82061777999004" width="203.11303627356844"><g><svg xmlns="http://www.w3.org/2000/svg" xmlns:xlink="http://www.w3.org/1999/xlink" version="1.1" x="0" y="0" viewBox="1.1 13.399999999999999 97.80000000000001 73.10242952049867" enable-background="new 0 0 100 100" xml:space="preserve" height="151.82061777999004" width="203.11303627356844" class="icon-icon-0" data-fill-palette-color="accent" id="icon-0"><path d="M1.1 79.9v-4.1h5.4 0.3V33.2c0-3.4 2.7-6.1 6.1-6.1h23.7c-0.5 2-0.8 4.1-0.8 6.3 0 0.7 0 1.3 0.1 2H15v40.4h21.2v0.4c0 1.3 1 2.3 2.3 2.3h11.6c1.3 0 2.3-1 2.3-2.3v-0.4h21.2V58.5H79c1 0 2-0.1 3-0.2v17.4h0.3 5.4v4.1c0 3.7-3 6.7-6.7 6.7h-6.4H14.2 7.8C4.1 86.6 1.1 83.6 1.1 79.9zM40.8 33.4c0-11 9-20 20-20h18.1c11 0 20 9 20 20 0 11-9 20-20 20H65.4l-9.2 9.2c-0.6 0.6-1.7 0.2-1.7-0.7v-9.5C46.5 49.7 40.8 42.3 40.8 33.4zM52.7 33.5c0 1.1 0.2 2.1 0.6 3.1 0.4 1 1 1.9 1.8 2.7 0.8 0.8 1.7 1.4 2.7 1.8 1 0.4 2 0.6 3.1 0.6 1.1 0 2.1-0.2 3.1-0.6 1-0.4 1.9-1 2.7-1.8l0.6-0.6-2.6-2.6-0.6 0.6c-0.9 0.9-2 1.3-3.2 1.3-1.2 0-2.3-0.5-3.2-1.3-0.9-0.9-1.3-2-1.3-3.2s0.5-2.3 1.3-3.2c0.9-0.9 2-1.3 3.2-1.3 1.2 0 2.3 0.5 3.2 1.3l3.2 3.2 5.8 5.8c0.8 0.8 1.7 1.4 2.7 1.8 1 0.4 2 0.6 3.1 0.6 1.1 0 2.1-0.2 3.1-0.6 1-0.4 1.9-1 2.7-1.8 0.8-0.8 1.4-1.7 1.8-2.7 0.4-1 0.6-2 0.6-3.1 0-1.1-0.2-2.1-0.6-3.1-0.4-1-1-1.9-1.8-2.7-0.8-0.8-1.7-1.4-2.7-1.8-1-0.4-2-0.6-3.1-0.6-1.1 0-2.1 0.2-3.1 0.6-1 0.4-1.9 1-2.7 1.8l-0.7 0.7L75 31l0.7-0.7c0.9-0.9 2-1.3 3.2-1.3 1.2 0 2.3 0.5 3.2 1.3 0.9 0.9 1.3 2 1.3 3.2s-0.5 2.3-1.3 3.2c-0.9 0.9-2 1.3-3.2 1.3-1.2 0-2.3-0.5-3.2-1.3l-1.3-1.3-7.7-7.7c-0.8-0.8-1.7-1.4-2.7-1.8-1-0.4-2-0.6-3.1-0.6-1.1 0-2.1 0.2-3.1 0.6-1 0.4-1.9 1-2.7 1.8-0.8 0.8-1.4 1.7-1.8 2.7C52.9 31.4 52.7 32.4 52.7 33.5z" fill="#0074d9" data-fill-palette-color="accent"></path></svg></g></svg></g></svg></g><defs></defs></svg><rect width="395.52" height="90.92567246602788" fill="none" stroke="none" visibility="hidden"></rect></g></svg></g></svg>